<svg width="450" height="450">
  <rect x="0" y="0" width="450" height="450" style="fill:white; stroke:black; stroke-width:2"/>
  <rect x="0" y="0" width="150" height="150" style="fill:none; stroke:black; stroke-width:2"/>
  <rect x="150" y="0" width="150" height="150" style="fill:none; stroke:black; stroke-width:2"/>
  <rect x="300" y="0" width="150" height="150" style="fill:none; stroke:black; stroke-width:2"/>
  <rect x="0" y="150" width="150" height="150" style="fill:none; stroke:black; stroke-width:2"/>
  <rect x="150" y="150" width="150" height="150" style="fill:none; stroke:black; stroke-width:2"/>
  <rect x="300" y="150" width="150" height="150" style="fill:none; stroke:black; stroke-width:2"/>
  <rect x="0" y="300" width="150" height="150" style="fill:none; stroke:black; stroke-width:2"/>
  <rect x="150" y="300" width="150" height="150" style="fill:none; stroke:black; stroke-width:2"/>
  <rect x="300" y="300" width="150" height="150" style="fill:none; stroke:black; stroke-width:2"/>
  <rect x="50" y="50" width="50" height="50" style="fill:none; stroke:black; stroke-width:1"/>
  <rect x="100" y="50" width="50" height="50" style="fill:none; stroke:black; stroke-width:1"/>
  <rect x="200" y="50" width="50" height="50" style="fill:none; stroke:black; stroke-width:1"/>
  <rect x="250" y="50" width="50" height="50" style="fill:none; stroke:black; stroke-width:1"/>
  <rect x="350" y="50" width="50" height="50" style="fill:none; stroke:black; stroke-width:1"/>
  <rect x="400" y="50" width="50" height="50" style="fill:none; stroke:black; stroke-width:1"/>
  <rect x="50" y="100" width="50" height="50" style="fill:none; stroke:black; stroke-width:1"/>
  <rect x="100" y="100" width="50" height="50" style="fill:none; stroke:black; stroke-width:1"/>
  </svg>