<svg width="450" height="450">
  <rect x="0" y="0" width="450" height="450" style="fill:white; stroke:black; stroke-width:2"/> //grand carre

  <rect x="0" y="0" width="150" height="150" style="fill:none; stroke:black; stroke-width:2"/> //region 1
  <rect x="150" y="0" width="150" height="150" style="fill:none; stroke:black; stroke-width:2"/>
  <rect x="300" y="0" width="150" height="150" style="fill:none; stroke:black; stroke-width:2"/>
  <rect x="0" y="150" width="150" height="150" style="fill:none; stroke:black; stroke-width:2"/>
  <rect x="150" y="150" width="150" height="150" style="fill:none; stroke:black; stroke-width:2"/>
  <rect x="300" y="150" width="150" height="150" style="fill:none; stroke:black; stroke-width:2"/>
  <rect x="0" y="300" width="150" height="150" style="fill:none; stroke:black; stroke-width:2"/>
  <rect x="150" y="300" width="150" height="150" style="fill:none; stroke:black; stroke-width:2"/>
  <rect x="300" y="300" width="150" height="150" style="fill:none; stroke:black; stroke-width:2"/> //région 9


  <rect x="0" y="0" width="50" height="50" style="fill:none; stroke:black; stroke-width:1"/>   //Reg1 row1
  <text x="17" y="35" font-size="30" fill="black">1</text>
  <rect x="50" y="0" width="50" height="50" style="fill:none; stroke:black; stroke-width:1"/>
  <rect x="100" y="0" width="50" height="50" style="fill:none; stroke:black; stroke-width:1"/>

  <rect x="0" y="50" width="50" height="50" style="fill:none; stroke:black; stroke-width:1"/> //row2
  <rect x="50" y="50" width="50" height="50" style="fill:none; stroke:black; stroke-width:1"/>
  <rect x="100" y="50" width="50" height="50" style="fill:none; stroke:black; stroke-width:1"/>

  <rect x="0" y="100" width="50" height="50" style="fill:none; stroke:black; stroke-width:1"/> //row3
  <rect x="50" y="100" width="50" height="50" style="fill:none; stroke:black; stroke-width:1"/>
  <rect x="100" y="100" width="50" height="50" style="fill:none; stroke:black; stroke-width:1"/>


  <rect x="150" y="0" width="50" height="50" style="fill:none; stroke:black; stroke-width:1"/> //Reg2 row1
  <rect x="200" y="0" width="50" height="50" style="fill:none; stroke:black; stroke-width:1"/>
  <rect x="250" y="0" width="50" height="50" style="fill:none; stroke:black; stroke-width:1"/>

  <rect x="150" y="50" width="50" height="50" style="fill:none; stroke:black; stroke-width:1"/> //row2
  <rect x="200" y="50" width="50" height="50" style="fill:none; stroke:black; stroke-width:1"/>
  <rect x="250" y="50" width="50" height="50" style="fill:none; stroke:black; stroke-width:1"/>

  <rect x="150" y="100" width="50" height="50" style="fill:none; stroke:black; stroke-width:1"/> //row3
  <rect x="200" y="100" width="50" height="50" style="fill:none; stroke:black; stroke-width:1"/>
  <rect x="250" y="100" width="50" height="50" style="fill:none; stroke:black; stroke-width:1"/>


  <rect x="300" y="0" width="50" height="50" style="fill:none; stroke:black; stroke-width:1"/> //Reg3 row1
  <rect x="350" y="0" width="50" height="50" style="fill:none; stroke:black; stroke-width:1"/>
  <rect x="400" y="0" width="50" height="50" style="fill:none; stroke:black; stroke-width:1"/>

  <rect x="300" y="50" width="50" height="50" style="fill:none; stroke:black; stroke-width:1"/> //row2
  <rect x="350" y="50" width="50" height="50" style="fill:none; stroke:black; stroke-width:1"/>
  <rect x="400" y="50" width="50" height="50" style="fill:none; stroke:black; stroke-width:1"/>

  <rect x="300" y="100" width="50" height="50" style="fill:none; stroke:black; stroke-width:1"/> //row3
  <rect x="350" y="100" width="50" height="50" style="fill:none; stroke:black; stroke-width:1"/>
  <rect x="400" y="100" width="50" height="50" style="fill:none; stroke:black; stroke-width:1"/>


  <rect x="0" y="150" width="50" height="50" style="fill:none; stroke:black; stroke-width:1"/>   //Reg4 row4
  <rect x="50" y="150" width="50" height="50" style="fill:none; stroke:black; stroke-width:1"/>
  <rect x="100" y="150" width="50" height="50" style="fill:none; stroke:black; stroke-width:1"/>

  <rect x="0" y="200" width="50" height="50" style="fill:none; stroke:black; stroke-width:1"/> //row5
  <rect x="50" y="200" width="50" height="50" style="fill:none; stroke:black; stroke-width:1"/>
  <rect x="100" y="200" width="50" height="50" style="fill:none; stroke:black; stroke-width:1"/>

  <rect x="0" y="250" width="50" height="50" style="fill:none; stroke:black; stroke-width:1"/> //row6
  <rect x="50" y="250" width="50" height="50" style="fill:none; stroke:black; stroke-width:1"/>
  <rect x="100" y="250" width="50" height="50" style="fill:none; stroke:black; stroke-width:1"/>



  <rect x="150" y="150" width="50" height="50" style="fill:none; stroke:black; stroke-width:1"/> //Reg5 row4
  <rect x="200" y="150" width="50" height="50" style="fill:none; stroke:black; stroke-width:1"/>
  <rect x="250" y="150" width="50" height="50" style="fill:none; stroke:black; stroke-width:1"/>

  <rect x="150" y="200" width="50" height="50" style="fill:none; stroke:black; stroke-width:1"/> //row5
  <rect x="200" y="200" width="50" height="50" style="fill:none; stroke:black; stroke-width:1"/>
  <rect x="250" y="200" width="50" height="50" style="fill:none; stroke:black; stroke-width:1"/>

  <rect x="150" y="250" width="50" height="50" style="fill:none; stroke:black; stroke-width:1"/> //row6
  <rect x="200" y="250" width="50" height="50" style="fill:none; stroke:black; stroke-width:1"/>
  <rect x="250" y="250" width="50" height="50" style="fill:none; stroke:black; stroke-width:1"/>


  <rect x="300" y="150" width="50" height="50" style="fill:none; stroke:black; stroke-width:1"/> //Reg6 row4
  <rect x="350" y="150" width="50" height="50" style="fill:none; stroke:black; stroke-width:1"/>
  <rect x="400" y="150" width="50" height="50" style="fill:none; stroke:black; stroke-width:1"/>

  <rect x="300" y="200" width="50" height="50" style="fill:none; stroke:black; stroke-width:1"/> //row5
  <rect x="350" y="200" width="50" height="50" style="fill:none; stroke:black; stroke-width:1"/>
  <rect x="400" y="200" width="50" height="50" style="fill:none; stroke:black; stroke-width:1"/>

  <rect x="300" y="250" width="50" height="50" style="fill:none; stroke:black; stroke-width:1"/> //row6
  <rect x="350" y="250" width="50" height="50" style="fill:none; stroke:black; stroke-width:1"/>
  <rect x="400" y="250" width="50" height="50" style="fill:none; stroke:black; stroke-width:1"/>


  <rect x="0" y="300" width="50" height="50" style="fill:none; stroke:black; stroke-width:1"/> //Reg7 row7
  <rect x="50" y="300" width="50" height="50" style="fill:none; stroke:black; stroke-width:1"/>
  <rect x="100" y="300" width="50" height="50" style="fill:none; stroke:black; stroke-width:1"/>

  <rect x="0" y="350" width="50" height="50" style="fill:none; stroke:black; stroke-width:1"/> //row8
  <rect x="50" y="350" width="50" height="50" style="fill:none; stroke:black; stroke-width:1"/>
  <rect x="100" y="350" width="50" height="50" style="fill:none; stroke:black; stroke-width:1"/>

  <rect x="0" y="400" width="50" height="50" style="fill:none; stroke:black; stroke-width:1"/> //row9
  <rect x="50" y="400" width="50" height="50" style="fill:none; stroke:black; stroke-width:1"/>
  <rect x="100" y="400" width="50" height="50" style="fill:none; stroke:black; stroke-width:1"/>


  <rect x="150" y="300" width="50" height="50" style="fill:none; stroke:black; stroke-width:1"/> //Reg8 row7
  <rect x="200" y="300" width="50" height="50" style="fill:none; stroke:black; stroke-width:1"/>
  <rect x="250" y="300" width="50" height="50" style="fill:none; stroke:black; stroke-width:1"/>

  <rect x="150" y="350" width="50" height="50" style="fill:none; stroke:black; stroke-width:1"/> //row8
  <rect x="200" y="350" width="50" height="50" style="fill:none; stroke:black; stroke-width:1"/>
  <rect x="250" y="350" width="50" height="50" style="fill:none; stroke:black; stroke-width:1"/>

  <rect x="150" y="400" width="50" height="50" style="fill:none; stroke:black; stroke-width:1"/> //row9
  <rect x="200" y="400" width="50" height="50" style="fill:none; stroke:black; stroke-width:1"/>
  <rect x="250" y="400" width="50" height="50" style="fill:none; stroke:black; stroke-width:1"/>


  <rect x="300" y="300" width="50" height="50" style="fill:none; stroke:black; stroke-width:1"/> //Reg9 row7
  <rect x="350" y="300" width="50" height="50" style="fill:none; stroke:black; stroke-width:1"/>
  <rect x="400" y="300" width="50" height="50" style="fill:none; stroke:black; stroke-width:1"/>

  <rect x="300" y="350" width="50" height="50" style="fill:none; stroke:black; stroke-width:1"/> //row8
  <rect x="350" y="350" width="50" height="50" style="fill:none; stroke:black; stroke-width:1"/>
  <rect x="400" y="350" width="50" height="50" style="fill:none; stroke:black; stroke-width:1"/>

  <rect x="300" y="400" width="50" height="50" style="fill:none; stroke:black; stroke-width:1"/> //row9
  <rect x="350" y="400" width="50" height="50" style="fill:none; stroke:black; stroke-width:1"/>
  <rect x="400" y="400" width="50" height="50" style="fill:none; stroke:black; stroke-width:1"/>
  </svg>